<svg xmlns="http://www.w3.org/2000/svg" width="1024" height="1024" viewBox="0 0 1024 1024">
  <defs>
    <linearGradient id="bg" x1="160" x2="864" y1="112" y2="912" gradientUnits="userSpaceOnUse">
      <stop offset="0" stop-color="#f0d6b1" />
      <stop offset="0.48" stop-color="#d88a49" />
      <stop offset="1" stop-color="#8c4f2b" />
    </linearGradient>
    <radialGradient id="glow" cx="0" cy="0" r="1" gradientTransform="translate(320 252) rotate(46.123) scale(575.221 504.389)" gradientUnits="userSpaceOnUse">
      <stop offset="0" stop-color="#fff7eb" stop-opacity="0.94" />
      <stop offset="0.42" stop-color="#fff1df" stop-opacity="0.34" />
      <stop offset="1" stop-color="#fff1df" stop-opacity="0" />
    </radialGradient>
    <filter id="shadow" x="109" y="112" width="806" height="808" filterUnits="userSpaceOnUse" color-interpolation-filters="sRGB">
      <feDropShadow dx="0" dy="26" stdDeviation="38" flood-color="#5d3419" flood-opacity="0.22" />
    </filter>
  </defs>

  <rect width="1024" height="1024" rx="232" fill="url(#bg)" />
  <rect width="1024" height="1024" rx="232" fill="url(#glow)" />

  <g filter="url(#shadow)">
    <circle cx="512" cy="512" r="292" fill="none" opacity="0.82" stroke="#fff5e5" stroke-width="34" />
    <circle cx="512" cy="512" r="196" fill="none" opacity="0.88" stroke="#fff8ef" stroke-width="28" />
  </g>

  <path
    d="M338 322v380c0 18.777 15.223 34 34 34h198v-88H426V322h-88Z"
    fill="#482816"
  />
  <path
    d="M650 288c-20.19 0-39.94 3.36-58 9.55v90.39c14.89-8.2 32-12.94 50.22-12.94 57.32 0 103.78 46.43 103.78 103.69 0 57.27-46.46 103.7-103.78 103.7-18.22 0-35.33-4.74-50.22-12.94v90.39c18.06 6.19 37.81 9.55 58 9.55 105.39 0 190.84-85.38 190.84-190.7 0-105.31-85.45-190.69-190.84-190.69Z"
    fill="#482816"
  />
</svg>
